<svg id="Layer_5" enable-background="new 0 0 64 64" height="512" viewBox="0 0 64 64" width="512" xmlns="http://www.w3.org/2000/svg"><circle cx="52" cy="16" fill="#dfb28b" r="10"/><g fill="#b27946"><path d="m53.27 6.09c2.69.33 5.05 1.75 6.63 3.79-.41 1.78-1.99 3.12-3.9 3.12-2.21 0-4-1.79-4-4 0-1.15.49-2.18 1.27-2.91z"/><path d="m61.28 19.72c-1.01 2.53-3.03 4.55-5.56 5.56-1.04-.72-1.72-1.92-1.72-3.28 0-2.21 1.79-4 4-4 1.36 0 2.56.68 3.28 1.72z"/><path d="m43 12c2.21 0 4 1.79 4 4s-1.79 4-4 4c-.06 0-.11-.01-.17-.02-.54-1.22-.83-2.56-.83-3.98s.29-2.76.83-3.98c.06-.01.11-.02.17-.02z"/></g><path d="m24 30 .05.26-.05.01c-2.09 1.1-4.47 1.73-7 1.73v-4c0-1.1-.9-2-2-2h-4c-1.1 0-2-.9-2-2s.9-2 2-2h1c1.1 0 2-.9 2-2s-.9-2-2-2h-5-2-2.95-.01c-.03-.33-.04-.66-.04-1 0-4.35 1.85-8.27 4.82-11.01l.01.01h7.17 2 2c1.1 0 2 .9 2 2s-.9 2-2 2h-6c-1.1 0-2 .9-2 2s.9 2 2 2h11 2 2 2 2.7c.2.97.3 1.97.3 3 0 .34-.01.67-.04 1h-11.96c-1.1 0-2 .9-2 2 0 .55.22 1.05.59 1.41.36.37.86.59 1.41.59s1.05.22 1.41.59c.37.36.59.86.59 1.41s.22 1.05.59 1.41c.36.37.86.59 1.41.59z" fill="#3bafda"/><path d="m17 28v4c-7.94 0-14.45-6.18-14.96-14h.01 2.95 2 5c1.1 0 2 .9 2 2s-.9 2-2 2h-1c-1.1 0-2 .9-2 2s.9 2 2 2h4c1.1 0 2 .9 2 2z" fill="#37bc9b"/><path d="m20 18h11.96c-.08 1.4-.37 2.74-.81 4h-3.15c-1.1 0-2 .9-2 2v2h-2c-.55 0-1.05-.22-1.41-.59-.37-.36-.59-.86-.59-1.41s-.22-1.05-.59-1.41c-.36-.37-.86-.59-1.41-.59s-1.05-.22-1.41-.59c-.37-.36-.59-.86-.59-1.41 0-1.1.9-2 2-2z" fill="#37bc9b"/><path d="m31.7 14h-2.7-2-2-2-11c-1.1 0-2-.9-2-2s.9-2 2-2h6c1.1 0 2-.9 2-2s-.9-2-2-2h-2-2-7.17l-.01-.01c2.67-2.48 6.25-3.99 10.18-3.99 7.25 0 13.31 5.15 14.7 12z" fill="#37bc9b"/><path d="m37 50 2 8h-14l2-8z" fill="#aab2bd"/><path d="m40 30-2 10h-12l-1.95-9.74-.05-.26z" fill="#aab2bd"/><path d="m26 26h12 2v4h-16v-4z" fill="#ccd1d9"/><path d="m38 24v2h-12v-2c0-1.1.9-2 2-2h3.15 4.85c1.1 0 2 .9 2 2z" fill="#969faa"/><path d="m41 59v2c0 .55-.45 1-1 1h-16c-.55 0-1-.45-1-1v-2c0-.55.45-1 1-1h1 14 1c.55 0 1 .45 1 1z" fill="#ccd1d9"/><path d="m44 39h18v12h-18z" fill="#969faa"/><path d="m2 39h18v12h-18z" fill="#969faa"/><path d="m24 43v4l-4 2v-4-4z" fill="#ccd1d9"/><path d="m44 45v4l-4-2v-4l4-2z" fill="#ccd1d9"/><path d="m26 40h12c1.1 0 2 .9 2 2v1 4 1c0 1.1-.9 2-2 2h-1-10-1c-1.1 0-2-.9-2-2v-1-4-1c0-1.1.9-2 2-2z" fill="#fcd770"/><path d="m43 40.382-2.059 1.03c-.196-.98-.87-1.79-1.769-2.173l1.809-9.043.019-5.196h-2v-1c0-1.654-1.346-3-3-3h-3.506c.335-1.3.506-2.641.506-4 0-8.822-7.178-16-16-16s-16 7.178-16 16 7.178 16 16 16c2.18 0 4.345-.454 6.335-1.311l1.495 7.549c-.9.383-1.574 1.193-1.77 2.174l-2.06-1.03v-2.382h-20v14h20v-2.382l2.059-1.03c.257 1.285 1.339 2.261 2.667 2.384l-1.506 6.028h-.22c-1.103 0-2 .897-2 2v2c0 1.103.897 2 2 2h16c1.103 0 2-.897 2-2v-2c0-1.103-.897-2-2-2h-.22l-1.507-6.028c1.328-.122 2.411-1.099 2.667-2.384l2.06 1.03v2.382h20v-14h-20zm-16.18-1.382-1.6-8h13.56l-1.6 8zm12.18-12v2h-14v-2zm-2-3v1h-10v-1c0-.551.448-1 1-1h8c.552 0 1 .449 1 1zm-9-3c-1.654 0-3 1.346-3 3v1h-1c-.552 0-1-.449-1-1 0-1.654-1.346-3-3-3-.552 0-1-.449-1-1s.448-1 1-1h10.848c-.097.677-.244 1.344-.439 2zm-24.84-2h1.84v-2h-2c0-3.916 1.621-7.457 4.221-10h6.779v-2h-4.174c2.101-1.261 4.55-2 7.174-2 6.329 0 11.684 4.225 13.41 10h-1.41v2h1.84c.094.655.16 1.319.16 2h-11c-1.654 0-3 1.346-3 3s1.346 3 3 3c.552 0 1 .449 1 1 0 1.302.839 2.402 2 2.816v2.811c-1.564.743-3.263 1.187-5 1.312v-2.939c0-1.654-1.346-3-3-3h-4c-.552 0-1-.449-1-1s.448-1 1-1h1c1.654 0 3-1.346 3-3s-1.346-3-3-3h-5v2h5c.552 0 1 .449 1 1s-.448 1-1 1h-1c-1.654 0-3 1.346-3 3s1.346 3 3 3h4c.552 0 1 .449 1 1v2.949c-6.584-.468-11.911-5.501-12.84-11.949zm15.84 25h-4v-4h4zm-10 0v-4h4v4zm4 2v4h-4v-4zm-6-6v4h-4v-4zm-4 6h4v4h-4zm12 4v-4h4v4zm6-7.382 2 1v2.764l-2 1zm19.002 18.382h-16.002v-2h16zm-13.722-4 1.5-6h8.439l1.5 6zm12.72-9c0 .552-.448 1-1 1h-12c-.552 0-1-.448-1-1v-6c0-.552.448-1 1-1h12c.552 0 1 .448 1 1zm2-1.618v-2.764l2-1v4.764zm4-.382h4v4h-4zm10 0v4h-4v-4zm-4-2v-4h4v4zm6 6v-4h4v4zm4-6h-4v-4h4zm-12-4v4h-4v-4z"/><path d="m27 43h2v4h-2z"/><path d="m31 43h2v4h-2z"/><path d="m35 43h2v4h-2z"/><path d="m52 27c6.065 0 11-4.935 11-11s-4.935-11-11-11-11 4.935-11 11 4.935 11 11 11zm-8.494-13.949c1.413.242 2.494 1.468 2.494 2.949 0 1.492-1.098 2.723-2.492 2.953-.323-.927-.508-1.918-.508-2.953 0-1.034.184-2.023.506-2.949zm12.385 11.052c-.557-.558-.891-1.306-.891-2.103 0-1.654 1.346-3 3-3 .797 0 1.544.334 2.103.892-.886 1.837-2.374 3.325-4.212 4.211zm2.89-14.002c-.444 1.137-1.529 1.899-2.781 1.899-1.654 0-3-1.346-3-3 0-.678.237-1.313.657-1.841 2.03.38 3.819 1.444 5.124 2.942zm-7.375-3.071c-.266.614-.406 1.28-.406 1.97 0 2.757 2.243 5 5 5 1.646 0 3.108-.797 4.023-2.057.62 1.221.977 2.597.977 4.057 0 .64-.07 1.263-.197 1.866-.818-.556-1.792-.866-2.803-.866-2.757 0-5 2.243-5 5 0 1.012.31 1.986.866 2.803-.603.127-1.226.197-1.866.197-3.206 0-6.018-1.69-7.612-4.22 2.079-.606 3.612-2.508 3.612-4.78s-1.533-4.174-3.612-4.78c1.495-2.372 4.061-3.996 7.018-4.19z"/><path d="m25 13h2v2h-2z"/><path d="m12 15h11v-2h-11c-.552 0-1-.449-1-1s.448-1 1-1h6c1.654 0 3-1.346 3-3s-1.346-3-3-3h-2v2h2c.552 0 1 .449 1 1s-.448 1-1 1h-6c-1.654 0-3 1.346-3 3s1.346 3 3 3z"/></svg>